<svg aria-hidden="true" style="position: absolute; width: 0; height: 0; overflow: hidden;" version="1.1" xmlns="http://www.w3.org/2000/svg" xmlns:xlink="http://www.w3.org/1999/xlink">
<defs>

<symbol id="icon-school" viewBox="0 0 32 32">
<path d="M30.326 11.722v5.005l1.206 1.382-2.317 2.006-2.118-2.006 1.274-1.418v-4.141c-6.845 2.79-8.698 3.661-10.214 4.336-1.517 0.678-2.611 0.675-4.115 0.112-1.504-0.56-8.33-3.149-11.888-4.832-2.374-1.123-2.528-1.837 0.042-2.79 3.35-1.261 8.55-3.277 11.488-4.378 1.738-0.694 2.656-1.075 4.253-0.282 2.848 1.165 9.018 3.581 12.253 4.902 2.816 1.213 0.922 1.613 0.138 2.102zM18.49 18.963c1.654-0.675 3.888-1.792 6.32-2.826v8.282s-3.146 3.312-8.678 3.312c-5.958 0-9.174-3.312-9.174-3.312v-7.731c1.878 0.758 3.987 1.408 6.538 2.272 1.571 0.557 3.568 0.746 4.995 0.003z"></path>
</symbol>

<symbol id="icon-book" viewBox="0 0 32 32">
<path d="M28 4v26h-21c-1.657 0-3-1.343-3-3s1.343-3 3-3h19v-24h-20c-2.2 0-4 1.8-4 4v24c0 2.2 1.8 4 4 4h24v-28h-2z"></path>
<path d="M7.002 26v0c-0.001 0-0.001 0-0.002 0-0.552 0-1 0.448-1 1s0.448 1 1 1c0.001 0 0.001-0 0.002-0v0h18.997v-2h-18.997z"></path>
</symbol>

<symbol id="icon-pencil" viewBox="0 0 32 32">
<path d="M27 0c2.761 0 5 2.239 5 5 0 1.126-0.372 2.164-1 3l-2 2-7-7 2-2c0.836-0.628 1.874-1 3-1zM2 23l-2 9 9-2 18.5-18.5-7-7-18.5 18.5zM22.362 11.362l-14 14-1.724-1.724 14-14 1.724 1.724z"></path>
</symbol>

<symbol id="icon-bin2" viewBox="0 0 32 32">
<path d="M6 32h20l2-22h-24zM20 4v-4h-8v4h-10v6l2-2h24l2 2v-6h-10zM18 4h-4v-2h4v2z"></path>
</symbol>

</defs>
</svg>